<?xml version="1.0" encoding="utf-8"?>
<!-- Generator: Adobe Illustrator 19.2.1, SVG Export Plug-In . SVG Version: 6.00 Build 0)  -->
<!DOCTYPE svg PUBLIC "-//W3C//DTD SVG 1.1//EN" "http://www.w3.org/Graphics/SVG/1.1/DTD/svg11.dtd">
<svg version="1.1" id="Layer_1" xmlns="http://www.w3.org/2000/svg" xmlns:xlink="http://www.w3.org/1999/xlink" x="0px" y="0px"
	 viewBox="0 0 55 65" style="enable-background:new 0 0 55 65;" xml:space="preserve">
<style type="text/css">
	.st0{fill:#F25444;}
	.st1{fill:none;stroke:#F25444;stroke-width:2;stroke-linecap:round;stroke-linejoin:round;stroke-miterlimit:10;}
</style>
<g>
	<path class="st0" d="M42.3,4c0.3,0,0.5,0.2,0.5,0.5V19c0,0.1,0,0.2,0,0.2C43,19.9,43,20.5,43,21c0,8.3-6.8,15-15.1,15
		c-8,0-14.6-6.2-15-14.1c0-0.1,0-0.2,0-0.3v-17c0-0.3,0.2-0.5,0.5-0.5H42.3 M42.3,2H13.4c-1.4,0-2.5,1.1-2.5,2.5V22h0.1
		c0.5,8.9,7.9,16,17,16C37.4,38,45,30.4,45,21c0-0.7,0-1.3-0.1-2V4.5C44.9,3.1,43.7,2,42.3,2L42.3,2z"/>
</g>
<line class="st1" x1="28" y1="37" x2="28" y2="63"/>
<line class="st1" x1="46" y1="63" x2="10" y2="63"/>
<path class="st1" d="M45,7h7c0,3.9,1.5,12-8,12"/>
<path class="st1" d="M11,7H4c0,3.9-1.5,12,8,12"/>
</svg>
